<?xml version="1.0" standalone="no"?>
<!DOCTYPE svg PUBLIC "-//W3C//DTD SVG 20010904//EN"
 "http://www.w3.org/TR/2001/REC-SVG-20010904/DTD/svg10.dtd">
<svg version="1.0" xmlns="http://www.w3.org/2000/svg"
 width="48.000000pt" height="48.000000pt" viewBox="0 0 48.000000 48.000000"
 preserveAspectRatio="xMidYMid meet">

<g transform="translate(0.000000,48.000000) scale(0.100000,-0.100000)"
fill="#000000" stroke="none">
<path d="M40 386 c0 -8 45 -42 100 -76 l100 -62 100 62 c55 34 100 68 100 76
0 12 -35 14 -200 14 -165 0 -200 -2 -200 -14z"/>
<path d="M40 200 l0 -120 200 0 200 0 0 120 c0 66 -2 120 -5 120 -3 0 -45 -25
-93 -55 -49 -30 -94 -55 -101 -55 -7 0 -53 25 -102 55 -49 30 -91 55 -94 55
-3 0 -5 -54 -5 -120z"/>
</g>
</svg>
