<?xml version="1.0" standalone="no"?>
<!DOCTYPE svg PUBLIC "-//W3C//DTD SVG 20010904//EN"
 "http://www.w3.org/TR/2001/REC-SVG-20010904/DTD/svg10.dtd">
<svg version="1.0" xmlns="http://www.w3.org/2000/svg"
 width="128.000000pt" height="128.000000pt" viewBox="0 0 128.000000 128.000000"
 preserveAspectRatio="xMidYMid meet">

<g transform="translate(0.000000,128.000000) scale(0.100000,-0.100000)"
fill="#000000" stroke="none">
<path d="M265 1104 c-97 -37 -125 -60 -125 -104 0 -38 104 -240 175 -340 77
-108 237 -268 345 -345 99 -70 302 -175 339 -175 15 0 36 7 48 15 28 20 99
213 86 234 -12 19 -211 171 -224 171 -5 0 -38 -25 -74 -55 -35 -30 -67 -55
-71 -55 -17 0 -136 95 -190 151 -55 59 -124 149 -124 164 0 3 25 35 55 70 30
36 55 69 55 74 0 5 -37 57 -83 117 -52 69 -89 110 -102 111 -11 1 -60 -14
-110 -33z"/>
</g>
</svg>
